<svg width="35" height="35" viewBox="0 0 35 35" fill="none" xmlns="http://www.w3.org/2000/svg">
<rect width="34.667" height="34.667" rx="17.3335" fill="#2F920B"/>
<path d="M12.0002 10.0002C11.8296 10.0002 11.6588 10.0652 11.5288 10.1955L10.1955 11.5288C9.93483 11.7895 9.93483 12.2115 10.1955 12.4715L15.0575 17.3335L10.1955 22.1955C9.93483 22.4562 9.93483 22.8782 10.1955 23.1382L11.5288 24.4715C11.7895 24.7322 12.2115 24.7322 12.4715 24.4715L17.3335 19.6096L22.1955 24.4715C22.4555 24.7322 22.8782 24.7322 23.1382 24.4715L24.4715 23.1382C24.7322 22.8775 24.7322 22.4555 24.4715 22.1955L19.6096 17.3335L24.4715 12.4715C24.7322 12.2115 24.7322 11.7888 24.4715 11.5288L23.1382 10.1955C22.8775 9.93483 22.4555 9.93483 22.1955 10.1955L17.3335 15.0575L12.4715 10.1955C12.3412 10.0652 12.1708 10.0002 12.0002 10.0002Z" fill="white"/>
</svg>
