<svg width="25" height="24" viewBox="0 0 25 24" fill="none" xmlns="http://www.w3.org/2000/svg">
<path d="M12.5 2C6.977 2 2.5 6.477 2.5 12C2.5 16.4435 5.4005 20.2055 9.41 21.508H15.59C19.5995 20.2055 22.5 16.4435 22.5 12C22.5 6.477 18.023 2 12.5 2Z" fill="url(#paint0_linear_10_28)"/>
<path opacity="0.05" d="M15.505 20.998L15.5 18.099C15.5 17.6295 15.39 17.171 15.179 16.7555C17.9995 16.189 19.372 14.5215 19.372 11.667C19.372 10.5395 19.0395 9.54401 18.384 8.70701C18.434 8.54851 18.471 8.38451 18.494 8.21651C18.588 7.53201 18.4825 7.08451 18.3975 6.72451L18.384 6.66651C18.291 6.26851 18.1795 5.98451 18.175 5.97251L18.1195 5.83151L18.064 5.69051L17.913 5.67451L17.7615 5.65851C17.7615 5.65851 17.662 5.64801 17.511 5.64801C17.3015 5.64801 16.991 5.66901 16.6975 5.76851L16.5995 5.80151C16.2295 5.92601 15.88 6.04401 15.391 6.33601C15.248 6.42151 15.0915 6.51901 14.924 6.62801C14.167 6.44051 13.3525 6.34501 12.5 6.34501C11.639 6.34501 10.8175 6.44101 10.0555 6.63051C9.88601 6.52051 9.72851 6.42201 9.58451 6.33601C9.09551 6.04401 8.74601 5.92651 8.37601 5.80151L8.27801 5.76851C7.98551 5.66901 7.67451 5.64801 7.46501 5.64801C7.31401 5.64801 7.21451 5.65851 7.21451 5.65851L7.06351 5.67451L6.91351 5.69001L6.85751 5.83051L6.80101 5.97201C6.79601 5.98501 6.68451 6.26901 6.59151 6.66751L6.57801 6.72501C6.49301 7.08451 6.38751 7.53251 6.48151 8.21651C6.50551 8.38951 6.54401 8.55901 6.59651 8.72201C5.95401 9.55501 5.62851 10.545 5.62851 11.667C5.62851 14.5145 7.00251 16.181 9.82701 16.752C9.73001 16.946 9.65451 17.151 9.60101 17.364C9.50251 17.3975 9.41201 17.42 9.33201 17.4325C9.21301 17.4505 9.08851 17.4595 8.96251 17.4595C8.61951 17.4595 8.35001 17.3925 8.24501 17.33C8.08851 17.237 7.80901 16.9665 7.53801 16.571C7.30651 16.2335 6.94551 15.792 6.54201 15.6075C6.19301 15.448 5.82351 15.3565 5.52751 15.3565C5.45851 15.3565 5.39501 15.3615 5.33951 15.3705C5.08101 15.4115 4.86501 15.5535 4.74751 15.7605C4.64601 15.939 4.63001 16.147 4.70351 16.331C4.81301 16.605 5.12901 16.8235 5.37501 16.9585C5.49601 17.025 5.75751 17.268 5.91001 17.513C6.02451 17.697 6.07751 17.828 6.15101 18.009C6.19451 18.1165 6.24251 18.2335 6.30751 18.375C6.54251 18.886 7.27601 19.337 7.35901 19.3865C7.76201 19.628 8.43951 19.7055 8.93751 19.728L8.99901 19.7295H8.99951C9.11951 19.7295 9.28451 19.718 9.50151 19.694V21.0005C9.50251 21.265 9.23301 21.325 8.87651 21.3195L9.15001 21.4115C10.1975 21.786 11.3225 22 12.5 22C13.6775 22 14.8025 21.786 15.8515 21.412L16.203 21.281C15.8475 21.269 15.508 21.211 15.505 20.998Z" fill="#2F920B"/>
<path opacity="0.07" d="M15.8905 21.3985C15.6875 21.422 15.25 21.344 15.25 21.001V18.099C15.25 17.552 15.086 17.0235 14.782 16.573C17.7395 16.0945 19.1215 14.5265 19.1215 11.667C19.1215 10.5485 18.7785 9.57001 18.102 8.75601C18.1705 8.57351 18.2185 8.38101 18.246 8.18251C18.3335 7.54451 18.238 7.13951 18.154 6.78201L18.1405 6.72401C18.0515 6.34351 17.9465 6.07551 17.942 6.06451L17.8865 5.92351L17.735 5.90751C17.735 5.90751 17.646 5.89801 17.5105 5.89801C17.32 5.89801 17.0385 5.91651 16.7775 6.00551L16.6795 6.03851C16.3225 6.15901 15.985 6.27251 15.519 6.55051C15.353 6.64951 15.168 6.76601 14.9685 6.89751C14.202 6.69701 13.3725 6.59501 12.5 6.59501C11.619 6.59501 10.7825 6.69751 10.0105 6.90001C9.80899 6.76751 9.62299 6.65051 9.45599 6.55051C8.98999 6.27251 8.65249 6.15851 8.29549 6.03851L8.19749 6.00551C7.93699 5.91701 7.65499 5.89801 7.46449 5.89801C7.32899 5.89801 7.23999 5.90751 7.23999 5.90751L7.08899 5.92351L7.03249 6.06501C7.02799 6.07601 6.92299 6.34401 6.83399 6.72451L6.82049 6.78251C6.73599 7.14001 6.64049 7.54451 6.72849 8.18251C6.75649 8.38601 6.80649 8.58301 6.87749 8.76951C6.21399 9.57951 5.87799 10.553 5.87799 11.667C5.87799 14.5185 7.26099 16.086 10.221 16.57C10.0235 16.865 9.88549 17.1975 9.81449 17.552C9.64949 17.617 9.49999 17.66 9.36899 17.68C9.23749 17.7 9.10049 17.71 8.96199 17.71C8.61699 17.71 8.28549 17.6455 8.11699 17.5455C7.89699 17.415 7.58849 17.0885 7.33099 16.713C7.15599 16.458 6.80749 16.0045 6.43699 15.8355C6.11949 15.6905 5.78799 15.607 5.52649 15.607C5.47149 15.607 5.42149 15.611 5.37749 15.618C5.19449 15.647 5.04349 15.744 4.96349 15.885C4.89949 15.997 4.88899 16.1265 4.93399 16.239C5.02349 16.463 5.35499 16.664 5.49349 16.74C5.66099 16.832 5.95299 17.112 6.12049 17.382C6.24599 17.584 6.30549 17.7305 6.38099 17.9155C6.42349 18.02 6.46999 18.134 6.53299 18.2715C6.69849 18.631 7.20949 19.0075 7.48549 19.173C7.86249 19.399 8.56249 19.462 8.94649 19.479L9.00199 19.48C9.15149 19.48 9.40199 19.4575 9.74949 19.4125V21.001C9.74949 21.3905 9.25399 21.406 9.13249 21.406C9.11699 21.406 9.38399 21.498 9.38399 21.498C10.3655 21.82 11.411 22 12.5 22C13.589 22 14.6345 21.82 15.6155 21.4985C15.6155 21.4985 15.906 21.3965 15.8905 21.3985Z" fill="#2F920B"/>
<path d="M18.872 11.667C18.872 10.512 18.481 9.55401 17.8135 8.80301C17.886 8.64051 17.9615 8.42251 17.999 8.14851C18.085 7.52351 17.9835 7.14851 17.8975 6.78151C17.8115 6.41451 17.71 6.15651 17.71 6.15651C17.71 6.15651 17.249 6.10951 16.8585 6.24251C16.468 6.37551 16.132 6.47701 15.6475 6.76601C15.421 6.90101 15.193 7.04901 15.0125 7.16901C14.241 6.95501 13.3925 6.84501 12.5 6.84501C11.5995 6.84501 10.7435 6.95551 9.96652 7.17101C9.78552 7.05051 9.55602 6.90151 9.32802 6.76551C8.84352 6.47651 8.50752 6.37501 8.11702 6.24201C7.72652 6.10901 7.26552 6.15601 7.26552 6.15601C7.26552 6.15601 7.16402 6.41401 7.07802 6.78101C6.99202 7.14801 6.89052 7.52301 6.97652 8.14801C7.01502 8.42901 7.09302 8.65101 7.16752 8.81451C6.51252 9.56101 6.12852 10.513 6.12852 11.6665C6.12852 14.658 7.74452 16.0235 10.689 16.384C10.3455 16.747 10.115 17.212 10.0375 17.7295C9.84402 17.8145 9.62102 17.8945 9.40652 17.9265C8.85452 18.01 8.27102 17.9265 7.99002 17.76C7.70902 17.5935 7.37552 17.2185 7.12552 16.8535C6.91452 16.5455 6.61002 16.188 6.33402 16.062C5.96952 15.8955 5.61502 15.833 5.41752 15.864C5.21952 15.8955 5.12602 16.041 5.16752 16.1455C5.20902 16.2495 5.40702 16.406 5.61552 16.5205C5.82402 16.635 6.14702 16.9475 6.33452 17.2495C6.54352 17.5865 6.58452 17.781 6.76152 18.166C6.88602 18.437 7.31202 18.7755 7.61552 18.9575C7.87602 19.114 8.39652 19.203 8.95952 19.2285C9.15402 19.2375 9.61352 19.1805 10.001 19.1255V21.0005C10.001 21.32 9.70852 21.563 9.40552 21.507C10.378 21.834 11.4165 22 12.5 22C13.583 22 14.6215 21.834 15.595 21.508C15.2925 21.5635 15 21.3205 15 21.001V18.099C15 17.4345 14.7365 16.834 14.3135 16.3865C17.2365 16.0355 18.872 14.7025 18.872 11.667ZM6.11952 16.3635C6.04252 16.324 6.00102 16.251 6.02702 16.1995C6.05302 16.148 6.13702 16.1385 6.21402 16.178C6.29102 16.2175 6.33252 16.2905 6.30652 16.342C6.28052 16.3935 6.19652 16.403 6.11952 16.3635ZM6.72552 16.741C6.68502 16.785 6.59802 16.771 6.53102 16.71C6.46402 16.649 6.44252 16.5635 6.48302 16.5195C6.52352 16.4755 6.61052 16.4895 6.67752 16.5505C6.74452 16.6115 6.76602 16.697 6.72552 16.741ZM7.10252 17.366C7.05152 17.402 6.96502 17.3685 6.90952 17.291C6.85402 17.2135 6.85052 17.121 6.90152 17.085C6.95252 17.049 7.03902 17.0825 7.09452 17.16C7.14952 17.2375 7.15352 17.33 7.10252 17.366ZM7.64402 17.8365C7.60952 17.8925 7.51152 17.895 7.42552 17.8425C7.33952 17.79 7.29752 17.702 7.33202 17.646C7.36652 17.59 7.46452 17.5875 7.55052 17.64C7.63652 17.6925 7.67852 17.7805 7.64402 17.8365ZM8.15602 18.297C8.04952 18.284 7.97052 18.2175 7.97952 18.1485C7.98802 18.0795 8.08152 18.0345 8.18752 18.0475C8.29402 18.0605 8.37302 18.127 8.36402 18.196C8.35552 18.2645 8.26252 18.31 8.15602 18.297ZM8.98152 18.4165C8.86802 18.41 8.77952 18.345 8.78402 18.272C8.78852 18.199 8.88402 18.1445 8.99752 18.151C9.11102 18.1575 9.19952 18.2225 9.19502 18.2955C9.19052 18.369 9.09502 18.423 8.98152 18.4165ZM9.76052 18.3385C9.63952 18.3385 9.54152 18.2755 9.54152 18.198C9.54152 18.1205 9.63952 18.0575 9.76052 18.0575C9.88152 18.0575 9.97952 18.1205 9.97952 18.198C9.97952 18.2755 9.88102 18.3385 9.76052 18.3385Z" fill="#2F920B"/>
<defs>
<linearGradient id="paint0_linear_10_28" x1="2.5" y1="11.754" x2="22.5" y2="11.754" gradientUnits="userSpaceOnUse">
<stop offset="1" stop-color="white"/>
</linearGradient>
</defs>
</svg>
