<svg width="28" height="28" viewBox="0 0 28 28" fill="none" xmlns="http://www.w3.org/2000/svg">
<path d="M13.8466 0.5C1.46893 0.5 0.5 1.46893 0.5 13.8466V14.1534C0.5 26.5311 1.46893 27.5 13.8466 27.5H14.1534C26.5311 27.5 27.5 26.5311 27.5 14.1534V13.8466C27.5 1.46893 26.5311 0.5 14.1534 0.5H13.8466ZM21.9749 5.71591C22.4836 5.71468 22.8965 6.12588 22.8977 6.63397C22.899 7.14267 22.4884 7.55559 21.9797 7.55682C21.471 7.55804 21.058 7.14746 21.0568 6.63876C21.0556 6.13006 21.4662 5.71714 21.9749 5.71591ZM13.9856 7.86364C17.3741 7.85566 20.1284 10.5971 20.1364 13.9856C20.1443 17.3741 17.4029 20.1284 14.0144 20.1364C10.6259 20.1443 7.87161 17.4029 7.86364 14.0144C7.85566 10.6259 10.5971 7.87161 13.9856 7.86364ZM13.994 11.5455C12.6385 11.5491 11.5424 12.6505 11.5455 14.006C11.5491 15.3615 12.6505 16.4576 14.006 16.4545C15.3615 16.4515 16.4576 15.3495 16.4545 13.994C16.4509 12.6385 15.3495 11.5424 13.994 11.5455Z" fill="#2F920B"/>
</svg>
