<svg width="28" height="28" viewBox="0 0 28 28" fill="none" xmlns="http://www.w3.org/2000/svg">
<path d="M14 0.199951C6.39021 0.199951 0.200012 6.39015 0.200012 14C0.200012 21.6098 6.39021 27.8 14 27.8C21.6098 27.8 27.8 21.6098 27.8 14C27.8 6.39015 21.6098 0.199951 14 0.199951ZM20.7422 11.3144C20.7482 11.456 20.7518 11.6 20.7518 11.7446C20.7518 16.1354 17.408 21.2 11.2946 21.2C9.41781 21.2 7.67001 20.6498 6.20001 19.7066C6.45981 19.7378 6.72321 19.7528 6.99261 19.7528C8.55021 19.7528 9.98361 19.2223 11.12 18.3307C9.66561 18.3043 8.43921 17.3414 8.01501 16.0226C8.21841 16.0616 8.42661 16.0826 8.64141 16.0826C8.94441 16.0826 9.23841 16.0424 9.51621 15.9656C7.99701 15.659 6.85161 14.3174 6.85161 12.7064C6.85161 12.692 6.85161 12.6782 6.85161 12.6644C7.29981 12.9134 7.81161 13.0634 8.35701 13.0808C7.46421 12.4838 6.87861 11.4674 6.87861 10.3142C6.87861 9.70515 7.04181 9.13455 7.32801 8.64255C8.96781 10.6532 11.417 11.9762 14.1788 12.1154C14.1218 11.8718 14.0918 11.6186 14.0918 11.3582C14.0918 9.52275 15.5798 8.03475 17.4158 8.03475C18.3716 8.03475 19.235 8.43795 19.841 9.08415C20.5976 8.93535 21.3098 8.65875 21.9518 8.27835C21.704 9.05355 21.1766 9.70515 20.4896 10.1168C21.1628 10.0352 21.8024 9.85755 22.3994 9.59295C21.9542 10.2596 21.3908 10.8458 20.7422 11.3144Z" fill="#2F920B"/>
</svg>
